<svg width="374" height="59" viewBox="0 0 374 59" fill="none" xmlns="http://www.w3.org/2000/svg">
<g clip-path="url(#clip0_926_681)">
<path d="M17.7461 43.6015C19.1138 43.6539 20.4753 43.3964 21.7253 42.8494C22.9753 42.3024 24.0802 41.4805 24.9541 40.4471L31.6424 44.2313C30.0703 46.4196 27.9624 48.1847 25.5126 49.3643C23.0629 50.5439 20.35 51.1 17.6238 50.9814C6.8204 50.9814 0.0032766 43.7257 0.0032766 34.3272C-0.040619 32.1583 0.356914 30.0025 1.1726 27.9862C1.98829 25.9699 3.20579 24.1334 4.75376 22.5844C6.30173 21.0353 8.14909 19.8047 10.1878 18.9646C12.2264 18.1245 14.4154 17.6918 16.6266 17.6918C18.8379 17.6918 21.0269 18.1245 23.0656 18.9646C25.1042 19.8047 26.9516 21.0353 28.4996 22.5844C30.0475 24.1334 31.265 25.9699 32.0807 27.9862C32.8964 30.0025 33.2939 32.1583 33.25 34.3272C33.2449 35.4486 33.1374 36.5672 32.9289 37.6699H8.68354C9.83684 41.8335 13.3754 43.6015 17.7461 43.6015ZM24.9541 31.3614C24.6381 29.5315 23.6552 27.8764 22.1882 26.7045C20.7211 25.5325 18.87 24.9235 16.9794 24.9906C15.0242 24.859 13.0875 25.4344 11.5353 26.6082C9.98303 27.782 8.92274 29.4729 8.55469 31.3614H24.9541Z" fill="#323233"/>
<path d="M34.8227 34.3276C34.7713 32.1267 35.1753 29.9385 36.0102 27.8951C36.8452 25.8517 38.0937 23.9955 39.6804 22.4388C41.2672 20.8822 43.1591 19.6573 45.242 18.8382C47.3248 18.0191 49.5554 17.6227 51.7988 17.6731C54.7261 17.6251 57.612 18.3571 60.1488 19.7911C62.6856 21.2251 64.7783 23.3074 66.2041 25.8161L59.0659 29.9174C58.3773 28.6041 57.3228 27.5098 56.0252 26.7614C54.7275 26.013 53.2399 25.6414 51.7354 25.6897C49.4315 25.7254 47.2342 26.6482 45.6178 28.2592C44.0013 29.8702 43.0953 32.0401 43.0953 34.3006C43.0953 36.5612 44.0013 38.7311 45.6178 40.3421C47.2342 41.9531 49.4315 42.8762 51.7354 42.9118C53.2444 42.9809 54.742 42.6256 56.0522 41.888C57.3624 41.1504 58.4307 40.0612 59.1313 38.7483L66.3395 42.7852C64.4581 45.9328 61.5717 48.3845 58.127 49.7608C54.6824 51.137 50.8715 51.3612 47.2838 50.3987C43.6962 49.4363 40.532 47.3407 38.2806 44.4363C36.0292 41.5319 34.8161 37.9806 34.8292 34.3318L34.8227 34.3276Z" fill="#323233"/>
<path d="M67.7986 18.5562H76.0989V50.9606H67.7986V18.5562Z" fill="#323233"/>
<path d="M76.0944 8.00452H67.7986V16.1431H76.0944V8.00452Z" fill="#EF172F"/>
<path d="M78.0646 47.9217H76.8982V47.5359H79.6984V47.9217H78.532V50.9709H78.0667L78.0646 47.9217Z" fill="#323233"/>
<path d="M80.1069 47.5359H80.7447L81.8369 50.4224L82.9442 47.5359H83.5821V50.9647H83.1452V48.1082L82.0531 50.9647H81.6555L80.5634 48.1082V50.9647H80.1265L80.1069 47.5359Z" fill="#323233"/>
<path d="M95.2613 0H94.582V59.0014H95.2613V0Z" fill="#323233"/>
<path d="M121.261 14.0007C129.533 14.0007 135.404 20.7293 135.404 29.0007C135.404 37.2722 129.533 44.0007 121.261 44.0007H109.99V14.0007H121.261ZM121.261 41.8579C128.333 41.8579 133.176 36.115 133.176 29.0007C133.176 21.8864 128.333 16.1436 121.261 16.1436H112.261V41.8579H121.261ZM150.342 22.1007C156.857 22.1007 160.928 27.5007 160.928 33.3722C160.928 33.715 160.885 34.0579 160.885 34.4007H141.471C141.985 39.2436 145.671 42.415 150.557 42.415C154.071 42.415 156.728 40.7864 157.971 38.515L159.857 39.6293C158.1 42.5436 154.757 44.4722 150.514 44.4722C143.914 44.4722 139.242 39.7579 139.242 33.2864C139.242 26.9864 143.785 22.1007 150.342 22.1007ZM150.342 24.1579C145.457 24.1579 141.9 27.5436 141.471 32.3007H158.7C158.228 27.0722 154.542 24.1579 150.342 24.1579ZM184.794 22.5722H186.98V44.0007H184.794V39.1579C182.994 42.3722 179.694 44.4722 175.58 44.4722C169.494 44.4722 164.48 39.6293 164.48 33.2864C164.48 26.9436 169.494 22.1007 175.58 22.1007C179.694 22.1007 182.994 24.2007 184.794 27.415V22.5722ZM175.751 42.415C180.851 42.415 184.794 38.3864 184.794 33.2864C184.794 28.1864 180.851 24.1579 175.751 24.1579C170.651 24.1579 166.665 28.1864 166.665 33.2864C166.665 38.3864 170.651 42.415 175.751 42.415ZM193.56 44.0007V12.715H195.702V44.0007H193.56ZM211.95 22.1007C218.464 22.1007 222.535 27.5007 222.535 33.3722C222.535 33.715 222.492 34.0579 222.492 34.4007H203.078C203.592 39.2436 207.278 42.415 212.164 42.415C215.678 42.415 218.335 40.7864 219.578 38.515L221.464 39.6293C219.707 42.5436 216.364 44.4722 212.121 44.4722C205.521 44.4722 200.85 39.7579 200.85 33.2864C200.85 26.9864 205.392 22.1007 211.95 22.1007ZM211.95 24.1579C207.064 24.1579 203.507 27.5436 203.078 32.3007H220.307C219.835 27.0722 216.15 24.1579 211.95 24.1579ZM229.687 26.7722C231.144 23.3864 233.93 22.2722 236.844 22.2722V24.3293C233.158 24.3293 229.687 26.6007 229.687 32.0864V44.0007H227.544V22.5722H229.687V26.7722ZM273.228 44.0007L270.314 36.3722H255.271L252.357 44.0007H249.957L261.614 14.0007H264.014L275.628 44.0007H273.228ZM256.128 34.2293H269.499L262.814 16.7864L256.128 34.2293ZM298.048 14.0007H300.191V44.0007H298.048V39.0293C296.291 42.3293 292.991 44.4722 288.834 44.4722C282.705 44.4722 277.734 39.6293 277.734 33.2864C277.734 26.9436 282.705 22.1007 288.834 22.1007C292.991 22.1007 296.291 24.2436 298.048 27.5436V14.0007ZM288.963 42.415C294.063 42.415 298.048 38.3864 298.048 33.2864C298.048 28.1864 294.063 24.1579 288.963 24.1579C283.863 24.1579 279.877 28.1864 279.877 33.2864C279.877 38.3864 283.863 42.415 288.963 42.415ZM329.657 22.1007C334.2 22.1007 337.457 25.0579 337.457 30.415V44.0007H335.314V30.415C335.314 26.3436 332.957 24.1579 329.614 24.1579C326.014 24.1579 323.185 26.5579 323.185 32.0436V44.0007H321.042V30.415C321.042 26.3436 318.857 24.1579 315.557 24.1579C312.042 24.1579 308.914 26.5579 308.914 32.0436V44.0007H306.771V22.5722H308.914V26.2579C310.5 23.3007 313.071 22.1007 315.814 22.1007C318.942 22.1007 321.385 23.6436 322.5 26.4722C324.042 23.4722 326.785 22.1007 329.657 22.1007ZM344.589 17.3864C343.646 17.3864 342.875 16.615 342.875 15.6722C342.875 14.7722 343.646 14.0007 344.589 14.0007C345.532 14.0007 346.303 14.7722 346.303 15.6722C346.303 16.615 345.532 17.3864 344.589 17.3864ZM343.518 44.0007V22.5722H345.661V44.0007H343.518ZM362.079 22.1007C367.179 22.1007 370.393 25.4864 370.393 30.6722V44.0007H368.208V30.6722C368.208 26.7293 365.936 24.1579 361.908 24.1579C357.708 24.1579 354.408 26.9007 354.408 32.6864V44.0007H352.265V22.5722H354.408V26.6436C356.036 23.4722 358.779 22.1007 362.079 22.1007Z" fill="#323233"/>
</g>
<defs>
<clipPath id="clip0_926_681">
<rect width="373.261" height="59.0014" fill="white"/>
</clipPath>
</defs>
</svg>
