<svg width="392" height="59" viewBox="0 0 392 59" fill="none" xmlns="http://www.w3.org/2000/svg">
<g clip-path="url(#clip0_874_76)">
<path d="M17.7461 43.6015C19.1138 43.6539 20.4753 43.3964 21.7253 42.8494C22.9753 42.3024 24.0802 41.4805 24.9541 40.4471L31.6424 44.2313C30.0703 46.4196 27.9624 48.1847 25.5126 49.3643C23.0629 50.5439 20.35 51.1 17.6238 50.9814C6.8204 50.9814 0.0032766 43.7257 0.0032766 34.3272C-0.040619 32.1583 0.356914 30.0025 1.1726 27.9862C1.98829 25.9699 3.20579 24.1334 4.75376 22.5844C6.30173 21.0353 8.14909 19.8047 10.1878 18.9646C12.2264 18.1245 14.4154 17.6918 16.6266 17.6918C18.8379 17.6918 21.0269 18.1245 23.0656 18.9646C25.1042 19.8047 26.9516 21.0353 28.4996 22.5844C30.0475 24.1334 31.265 25.9699 32.0807 27.9862C32.8964 30.0025 33.2939 32.1583 33.25 34.3272C33.2449 35.4486 33.1374 36.5672 32.9289 37.6699H8.68354C9.83684 41.8335 13.3754 43.6015 17.7461 43.6015ZM24.9541 31.3614C24.6381 29.5315 23.6552 27.8764 22.1882 26.7045C20.7211 25.5325 18.87 24.9235 16.9794 24.9906C15.0242 24.859 13.0875 25.4344 11.5353 26.6082C9.98303 27.782 8.92274 29.4729 8.55469 31.3614H24.9541Z" fill="#323233"/>
<path d="M34.8227 34.3276C34.7713 32.1267 35.1753 29.9385 36.0102 27.8951C36.8452 25.8517 38.0937 23.9955 39.6804 22.4388C41.2672 20.8822 43.1591 19.6573 45.242 18.8382C47.3248 18.0191 49.5554 17.6227 51.7988 17.6731C54.7261 17.6251 57.612 18.3571 60.1488 19.7911C62.6856 21.2251 64.7783 23.3074 66.2041 25.8161L59.0659 29.9174C58.3773 28.6041 57.3228 27.5098 56.0252 26.7614C54.7275 26.013 53.2399 25.6414 51.7354 25.6897C49.4315 25.7254 47.2342 26.6482 45.6178 28.2592C44.0013 29.8702 43.0953 32.0401 43.0953 34.3006C43.0953 36.5612 44.0013 38.7311 45.6178 40.3421C47.2342 41.9531 49.4315 42.8762 51.7354 42.9118C53.2444 42.9809 54.742 42.6256 56.0522 41.888C57.3624 41.1504 58.4307 40.0612 59.1313 38.7483L66.3395 42.7852C64.4581 45.9328 61.5717 48.3845 58.127 49.7608C54.6824 51.137 50.8715 51.3612 47.2838 50.3987C43.6962 49.4363 40.532 47.3407 38.2806 44.4363C36.0292 41.5319 34.8161 37.9806 34.8292 34.3318L34.8227 34.3276Z" fill="#323233"/>
<path d="M67.7986 18.5562H76.0989V50.9606H67.7986V18.5562Z" fill="#323233"/>
<path d="M76.0944 8.00452H67.7986V16.1431H76.0944V8.00452Z" fill="#EF172F"/>
<path d="M78.0646 47.9217H76.8982V47.5359H79.6984V47.9217H78.532V50.9709H78.0667L78.0646 47.9217Z" fill="#323233"/>
<path d="M80.1069 47.5359H80.7447L81.8369 50.4224L82.9442 47.5359H83.5821V50.9647H83.1452V48.1082L82.0531 50.9647H81.6555L80.5634 48.1082V50.9647H80.1265L80.1069 47.5359Z" fill="#323233"/>
<path d="M95.2613 0H94.582V59.0014H95.2613V0Z" fill="#323233"/>
<path d="M123.876 44.4722C114.747 44.4722 108.276 37.5722 108.276 29.0007C108.276 20.4293 114.747 13.5293 123.876 13.5293C129.404 13.5293 134.247 16.3579 136.733 20.7293L134.718 21.8864C132.747 18.2007 128.59 15.715 123.876 15.715C115.99 15.715 110.547 21.6293 110.547 29.0007C110.547 36.3722 115.99 42.2864 123.876 42.2864C128.633 42.2864 132.833 39.7579 134.804 35.9864L136.818 37.1436C134.376 41.5579 129.49 44.4722 123.876 44.4722ZM157.175 22.5722H159.317V44.0007H157.175V39.9293C155.546 43.1007 152.803 44.4722 149.503 44.4722C144.403 44.4722 141.189 41.0864 141.189 35.9007V22.5722H143.375V35.9007C143.375 39.8436 145.646 42.415 149.675 42.415C153.875 42.415 157.175 39.6722 157.175 33.8864V22.5722ZM167.394 28.1864C167.394 33.9293 180.38 30.5436 180.38 38.3864C180.38 41.9007 177.294 44.4722 172.708 44.4722C168.422 44.4722 165.594 42.4579 164.565 39.715L166.408 38.6436C167.18 40.9579 169.494 42.415 172.708 42.415C175.708 42.415 178.237 41.0864 178.237 38.3864C178.237 32.5579 165.251 35.9007 165.251 28.1864C165.251 24.8007 168.165 22.1007 172.537 22.1007C176.008 22.1007 178.665 23.7722 179.822 26.3864L178.022 27.415C177.122 25.1864 174.894 24.1579 172.537 24.1579C169.751 24.1579 167.394 25.615 167.394 28.1864ZM195.7 24.6722H189.314V38.6007C189.314 42.3722 191.329 42.4579 195.7 42.0722V44.0007C190.086 44.8579 187.129 43.4864 187.129 38.6007V24.6722H182.414V22.5722H187.129V17.215L189.314 16.5722V22.5722H195.7V24.6722ZM209.359 44.4722C203.102 44.4722 198.087 39.6293 198.087 33.2864C198.087 26.9436 203.102 22.1007 209.359 22.1007C215.573 22.1007 220.587 26.9436 220.587 33.2864C220.587 39.6293 215.573 44.4722 209.359 44.4722ZM209.359 42.415C214.459 42.415 218.402 38.3864 218.402 33.2864C218.402 28.1864 214.459 24.1579 209.359 24.1579C204.259 24.1579 200.273 28.1864 200.273 33.2864C200.273 38.3864 204.259 42.415 209.359 42.415ZM248.63 22.1007C253.173 22.1007 256.43 25.0579 256.43 30.415V44.0007H254.287V30.415C254.287 26.3436 251.93 24.1579 248.587 24.1579C244.987 24.1579 242.159 26.5579 242.159 32.0436V44.0007H240.016V30.415C240.016 26.3436 237.83 24.1579 234.53 24.1579C231.016 24.1579 227.887 26.5579 227.887 32.0436V44.0007H225.744V22.5722H227.887V26.2579C229.473 23.3007 232.044 22.1007 234.787 22.1007C237.916 22.1007 240.359 23.6436 241.473 26.4722C243.016 23.4722 245.759 22.1007 248.63 22.1007ZM272.134 22.1007C278.648 22.1007 282.719 27.5007 282.719 33.3722C282.719 33.715 282.677 34.0579 282.677 34.4007H263.262C263.777 39.2436 267.462 42.415 272.348 42.415C275.862 42.415 278.519 40.7864 279.762 38.515L281.648 39.6293C279.891 42.5436 276.548 44.4722 272.305 44.4722C265.705 44.4722 261.034 39.7579 261.034 33.2864C261.034 26.9864 265.577 22.1007 272.134 22.1007ZM272.134 24.1579C267.248 24.1579 263.691 27.5436 263.262 32.3007H280.491C280.019 27.0722 276.334 24.1579 272.134 24.1579ZM289.871 26.7722C291.328 23.3864 294.114 22.2722 297.028 22.2722V24.3293C293.342 24.3293 289.871 26.6007 289.871 32.0864V44.0007H287.728V22.5722H289.871V26.7722ZM332.941 14.0007H335.212V44.0007H332.941V29.6436H315.498V44.0007H313.226V14.0007H315.498V27.5007H332.941V14.0007ZM357.649 22.5722H359.792V44.0007H357.649V39.9293C356.02 43.1007 353.277 44.4722 349.977 44.4722C344.877 44.4722 341.663 41.0864 341.663 35.9007V22.5722H343.849V35.9007C343.849 39.8436 346.12 42.415 350.149 42.415C354.349 42.415 357.649 39.6722 357.649 33.8864V22.5722ZM377.768 22.1007C383.897 22.1007 388.868 26.9436 388.868 33.2864C388.868 39.6293 383.897 44.4722 377.768 44.4722C373.611 44.4722 370.311 42.3293 368.554 39.0293V44.0007H366.411V14.0007H368.554V27.5436C370.311 24.2436 373.611 22.1007 377.768 22.1007ZM377.64 42.415C382.74 42.415 386.725 38.3864 386.725 33.2864C386.725 28.1864 382.74 24.1579 377.64 24.1579C372.54 24.1579 368.554 28.1864 368.554 33.2864C368.554 38.3864 372.54 42.415 377.64 42.415Z" fill="#323233"/>
</g>
<defs>
<clipPath id="clip0_874_76">
<rect width="391.261" height="59.0014" fill="white"/>
</clipPath>
</defs>
</svg>
